<?xml version="1.0" standalone="no"?><!DOCTYPE svg PUBLIC "-//W3C//DTD SVG 1.1//EN" "http://www.w3.org/Graphics/SVG/1.1/DTD/svg11.dtd"><svg class="icon" width="200px" height="200.00px" viewBox="0 0 1024 1024" version="1.1" xmlns="http://www.w3.org/2000/svg"><path d="M929.28 896h-864V623.68l184.448-184.448C261.76 444.736 275.072 448 289.28 448s27.456-3.264 39.552-8.768l129.216 129.216c-5.568 12.032-8.768 25.408-8.768 39.552 0 52.992 43.008 96 96 96s96-43.008 96-96c0-14.144-3.264-27.52-8.768-39.552l317.44-317.44c13.824-13.76 13.824-36.096 0-49.92-13.76-13.76-36.096-13.76-49.92 0L581.76 519.296c-11.264-4.672-23.552-7.296-36.48-7.296s-25.28 2.624-36.544 7.296L377.984 388.48A94.665 94.665 0 0 0 385.28 352c0-52.992-43.008-96-96-96s-96 43.008-96 96a94.665 94.665 0 0 0 7.296 36.48L65.28 523.84V160c0-17.664-14.336-32-32-32s-32 14.336-32 32v437.312a33.462 33.462 0 0 0 0 12.864V928c0 17.664 14.336 32 32 32h896c17.664 0 32-14.336 32-32s-14.336-32-32-32z m-384-320c17.664 0 32 14.336 32 32s-14.336 32-32 32-32-14.336-32-32 14.272-32 32-32z m-256-256c17.664 0 32 14.336 32 32s-14.336 32-32 32-32-14.336-32-32 14.272-32 32-32z" /></svg>