<?xml version="1.0" standalone="no"?><!DOCTYPE svg PUBLIC "-//W3C//DTD SVG 1.1//EN" "http://www.w3.org/Graphics/SVG/1.1/DTD/svg11.dtd"><svg class="icon" width="200px" height="200.00px" viewBox="0 0 1024 1024" version="1.1" xmlns="http://www.w3.org/2000/svg"><path d="M377 244.2V29.8C377 13.3 390.3 0 406.8 0h587.4c16.5 0 29.8 13.3 29.8 29.8v214.4c0 16.5-13.3 29.8-29.8 29.8H406.8c-16.5 0-29.8-13.3-29.8-29.8zM0 544.2V29.8C0 13.3 13.3 0 29.8 0h214.4C260.7 0 274 13.3 274 29.8v514.4c0 16.5-13.3 29.8-29.8 29.8H29.8C13.3 574 0 560.7 0 544.2zM750 769.2V404.8c0-16.5 13.3-29.8 29.8-29.8h214.4c16.5 0 29.8 13.3 29.8 29.8v364.4c0 16.5-13.3 29.8-29.8 29.8H779.8c-16.5 0-29.8-13.3-29.8-29.8zM375 994.2V410.8c0-16.5 13.3-29.8 29.8-29.8h214.4c16.5 0 29.8 13.3 29.8 29.8v583.4c0 16.5-13.3 29.8-29.8 29.8H404.8c-16.5 0-29.8-13.3-29.8-29.8zM750 994.2V889.8c0-16.5 13.3-29.8 29.8-29.8h214.4c16.5 0 29.8 13.3 29.8 29.8v104.4c0 16.5-13.3 29.8-29.8 29.8H779.8c-16.5 0-29.8-13.3-29.8-29.8zM0 994.2V669.8C0 653.3 13.3 640 29.8 640h214.4c16.5 0 29.8 13.3 29.8 29.8v324.4c0 16.5-13.3 29.8-29.8 29.8H29.8C13.3 1024 0 1010.7 0 994.2z" /></svg>